<?xml version="1.0" standalone="no"?>
<!DOCTYPE svg PUBLIC "-//W3C//DTD SVG 20010904//EN"
 "http://www.w3.org/TR/2001/REC-SVG-20010904/DTD/svg10.dtd">
<svg version="1.0" xmlns="http://www.w3.org/2000/svg"
 width="837.000000pt" height="230.000000pt" viewBox="0 0 837.000000 230.000000"
 preserveAspectRatio="xMidYMid meet">

<g transform="translate(0.000000,230.000000) scale(0.100000,-0.100000)"
fill="#000000" stroke="none">
<path d="M1055 1771 l-390 -226 0 -465 0 -465 394 -227 c232 -134 401 -226
410 -223 9 3 189 105 401 228 l385 223 0 464 0 464 -394 228 c-217 125 -399
228 -405 227 -6 -1 -186 -103 -401 -228z m719 -81 c168 -96 306 -177 306 -180
0 -9 -603 -354 -619 -354 -17 -1 -621 344 -621 353 1 8 613 361 622 358 4 -1
145 -81 312 -177z m-316 -675 c482 -278 619 -362 609 -371 -6 -6 -146 -89
-310 -183 l-298 -172 -342 198 -342 198 -3 363 -2 363 33 -18 c19 -10 313
-180 655 -378z m682 65 c0 -176 -3 -320 -6 -320 -10 0 -553 314 -553 320 0 6
540 319 552 319 4 1 7 -143 7 -319z"/>
<path d="M2630 1080 l0 -920 30 0 30 0 0 920 0 920 -30 0 -30 0 0 -920z"/>
<path d="M4988 1773 l3 -153 124 0 125 0 0 -470 0 -470 173 2 172 3 3 468 2
467 125 0 125 0 0 150 0 150 -427 2 -428 3 3 -152z"/>
<path d="M3190 1300 l0 -620 170 0 170 0 0 620 0 620 -170 0 -170 0 0 -620z"/>
<path d="M3742 1303 l3 -618 168 -3 167 -2 0 345 c0 190 3 345 8 345 4 0 98
-154 209 -343 l201 -342 171 -3 171 -2 0 620 0 620 -170 0 -170 0 -2 -349 -3
-349 -196 347 -196 346 -182 3 -181 2 2 -617z"/>
<path d="M5980 1300 l0 -620 350 0 350 0 0 155 0 155 -175 0 -175 0 0 85 0 85
145 0 145 0 0 150 0 150 -145 0 -145 0 0 80 0 80 170 0 170 0 0 150 0 150
-345 0 -345 0 0 -620z"/>
<path d="M6860 1301 l0 -621 175 0 175 0 0 221 0 220 36 -3 36 -3 103 -215
102 -215 186 -3 c121 -1 187 1 187 8 0 5 -61 123 -136 260 l-136 251 39 34
c22 18 53 60 70 92 100 188 49 433 -109 526 -94 55 -131 60 -440 65 l-288 4 0
-621z m480 311 c68 -33 72 -138 8 -185 -17 -12 -49 -22 -83 -25 l-55 -4 0 116
0 116 48 0 c26 0 63 -8 82 -18z"/>
<path d="M3192 333 c1 -54 3 -79 5 -57 4 37 7 42 35 48 17 3 37 11 45 17 34
29 -5 89 -57 89 l-30 0 2 -97z m73 42 c0 -27 -4 -30 -32 -33 -32 -3 -33 -2
-33 33 0 35 1 36 33 33 28 -3 32 -6 32 -33z"/>
<path d="M3450 335 l0 -95 45 0 c25 0 45 5 45 10 0 6 -16 10 -35 10 l-35 0 0
85 c0 50 -4 85 -10 85 -6 0 -10 -38 -10 -95z"/>
<path d="M3753 413 c-3 -10 -19 -52 -35 -93 -32 -85 -31 -80 -19 -80 4 0 12
15 17 33 9 29 13 32 49 32 36 0 42 -4 57 -35 27 -56 21 -19 -13 74 -32 86 -44
101 -56 69z m26 -25 c25 -66 24 -68 -8 -68 -35 0 -35 -1 -19 51 13 45 16 47
27 17z"/>
<path d="M4032 333 c2 -97 2 -97 5 -20 2 42 7 77 11 77 4 0 29 -34 56 -75 27
-41 52 -75 57 -75 5 0 9 43 9 95 0 114 -18 129 -22 18 l-3 -77 -50 77 c-27 42
-53 77 -57 77 -5 0 -7 -44 -6 -97z"/>
<path d="M4360 335 l0 -95 45 0 c25 0 45 5 45 10 0 6 -16 10 -35 10 -33 0 -35
2 -35 34 0 30 4 35 28 39 l27 4 -27 2 c-25 1 -28 5 -28 36 0 32 2 35 30 35 17
0 30 5 30 10 0 6 -18 10 -40 10 l-40 0 0 -95z"/>
<path d="M4600 420 c0 -5 11 -10 25 -10 25 0 25 -1 25 -85 0 -50 4 -85 10 -85
6 0 10 35 10 85 0 84 0 85 25 85 14 0 25 5 25 10 0 6 -27 10 -60 10 -33 0 -60
-4 -60 -10z"/>
<path d="M4891 344 c-35 -97 -40 -127 -10 -71 17 32 24 37 54 37 31 0 37 -4
50 -37 8 -20 18 -34 20 -31 8 7 -60 181 -72 185 -6 2 -24 -35 -42 -83z m48
-22 c-17 -2 -33 -1 -36 1 -2 3 3 22 13 43 l16 39 19 -40 18 -40 -30 -3z"/>
<path d="M5192 333 c1 -54 3 -77 5 -50 5 62 29 63 62 2 31 -58 47 -59 19 -1
-20 41 -20 45 -5 61 10 9 17 23 17 31 0 24 -38 54 -70 54 l-30 0 2 -97z m75
61 c9 -24 -10 -49 -41 -52 -24 -3 -26 0 -26 32 0 33 2 36 30 36 19 0 33 -6 37
-16z"/>
<path d="M5479 376 c20 -35 31 -69 32 -97 l2 -44 6 50 c3 28 19 71 34 98 15
26 23 47 18 47 -6 0 -20 -18 -31 -40 -11 -22 -22 -40 -25 -40 -3 0 -14 18 -25
40 -11 22 -25 40 -31 40 -6 0 3 -24 20 -54z"/>
<path d="M5922 333 c1 -54 3 -77 5 -50 4 45 5 47 36 48 l32 1 -30 7 c-25 5
-31 12 -33 39 -3 31 -2 32 32 32 20 0 36 5 36 10 0 6 -18 10 -40 10 l-40 0 2
-97z"/>
<path d="M6182 333 c1 -71 3 -85 7 -53 8 63 34 66 63 6 22 -46 32 -54 43 -36
3 6 2 10 -4 10 -6 0 -18 14 -26 30 -14 28 -14 33 0 52 8 13 15 30 15 40 0 23
-38 48 -72 48 l-28 0 2 -97z m76 48 c4 -26 -12 -41 -45 -41 -20 0 -23 5 -23
36 0 34 1 35 33 32 25 -2 33 -8 35 -27z"/>
<path d="M6460 335 l0 -95 40 0 c22 0 40 5 40 10 0 6 -16 10 -35 10 -33 0 -35
2 -35 35 0 33 2 35 33 36 l32 1 -30 7 c-25 5 -31 12 -33 39 -3 31 -2 32 32 32
20 0 36 5 36 10 0 6 -18 10 -40 10 l-40 0 0 -95z"/>
<path d="M6710 335 l0 -95 45 0 c25 0 45 5 45 10 0 6 -16 10 -35 10 -33 0 -35
2 -35 34 0 32 3 35 33 39 l32 4 -32 1 c-31 2 -33 5 -33 37 0 33 2 35 35 35 19
0 35 5 35 10 0 6 -20 10 -45 10 l-45 0 0 -95z"/>
<path d="M6980 334 l0 -96 43 7 c59 10 87 38 87 89 -1 50 -17 74 -61 86 -69
20 -69 20 -69 -86z m95 56 c42 -46 11 -130 -47 -130 l-28 0 0 75 0 75 28 0
c16 0 37 -9 47 -20z"/>
<path d="M7339 415 c-66 -36 -53 -144 20 -166 48 -14 85 1 106 42 45 86 -41
170 -126 124z m80 -10 c32 -16 41 -33 41 -76 0 -66 -88 -95 -129 -43 -42 54
-16 114 57 133 2 1 16 -6 31 -14z"/>
<path d="M7680 341 c0 -112 18 -132 22 -24 l3 78 32 -67 c18 -38 36 -68 41
-68 4 0 23 33 42 73 l34 72 6 -85 6 -85 2 98 c1 62 -2 97 -8 97 -6 0 -27 -35
-47 -77 l-37 -76 -34 76 c-47 105 -62 102 -62 -12z"/>
</g>
</svg>
